<?xml version="1.0" encoding="UTF-8"?>
<svg xmlns="http://www.w3.org/2000/svg" xmlns:xlink="http://www.w3.org/1999/xlink" width="50px" height="50px" viewBox="0 0 120 158" version="1.1">
<g id="surface1">
<path style=" stroke:none;fill-rule:nonzero;fill:rgb(0%,0%,0%);fill-opacity:1;" d="M 53.46875 0.175781 C 48.660156 0.644531 43.304688 2.191406 39.386719 4.273438 C 35.257812 6.464844 31.304688 9.753906 28.917969 12.996094 L 28.195312 13.996094 L 26.789062 14.269531 C 21.726562 15.269531 17.289062 17.6875 13.46875 21.507812 C 10.546875 24.441406 8.613281 27.296875 6.839844 31.277344 C 3.097656 39.742188 1.871094 51.429688 3.710938 61.183594 C 5.53125 70.792969 9.902344 78.386719 15.917969 82.335938 C 18.675781 84.144531 21.597656 85.144531 25.273438 85.53125 L 26.273438 85.640625 L 26.953125 86.949219 C 29.5 91.914062 32.597656 94.878906 37.804688 97.394531 C 41.226562 99.039062 44.355469 99.894531 48.546875 100.296875 C 50.917969 100.523438 55.402344 100.410156 58.417969 100.054688 L 60.46875 99.796875 L 61.644531 100.425781 C 63.226562 101.28125 64.453125 101.570312 66.433594 101.570312 C 70.484375 101.570312 73.597656 100.3125 79.402344 96.347656 C 88.871094 89.867188 104.484375 78.515625 107.515625 75.921875 C 109.402344 74.292969 111.453125 72.132812 112.804688 70.34375 C 114.210938 68.488281 115.695312 65.503906 116.242188 63.441406 C 116.628906 62.007812 116.675781 61.539062 116.675781 59.167969 C 116.675781 56.105469 116.515625 55.285156 115.417969 52.945312 C 114.613281 51.238281 113.644531 49.785156 111.660156 47.222656 C 108.710938 43.449219 107.613281 41.726562 107.144531 40.113281 C 106.953125 39.46875 106.871094 37.984375 106.773438 34.179688 C 106.660156 29.3125 106.644531 29.035156 106.226562 27.667969 C 104.582031 22.214844 101.128906 18.410156 92.902344 12.980469 C 89.015625 10.414062 86.03125 8.675781 82.210938 6.769531 C 71.675781 1.515625 62.210938 -0.660156 53.46875 0.175781 Z M 64.515625 12.429688 C 68.710938 12.914062 72.902344 14.171875 76.855469 16.105469 C 88.675781 21.925781 96.46875 32.859375 98.242188 46.109375 C 98.53125 48.335938 98.5 53.347656 98.160156 55.703125 C 96.066406 70.375 86.160156 82.386719 72.257812 87.125 C 68.289062 88.464844 64.742188 89.042969 60.160156 89.042969 C 55.53125 89.058594 52.46875 88.59375 48.144531 87.222656 C 35.453125 83.160156 25.613281 72.453125 22.53125 59.410156 C 21.46875 54.945312 21.242188 49.496094 21.917969 45.046875 C 23.160156 36.757812 26.953125 29.292969 32.902344 23.378906 C 41.242188 15.089844 52.839844 11.074219 64.515625 12.429688 Z M 64.515625 12.429688 "/>
<path style=" stroke:none;fill-rule:nonzero;fill:rgb(0%,0%,0%);fill-opacity:1;" d="M 56.53125 16.445312 C 40.03125 18.300781 27.386719 31.050781 25.789062 47.449219 C 24.726562 58.445312 29.324219 69.730469 37.742188 76.773438 C 44.082031 82.09375 51.886719 84.964844 59.96875 84.964844 C 73.128906 84.964844 84.824219 77.710938 90.757812 65.875 C 97.324219 52.785156 94.710938 36.839844 84.289062 26.359375 C 79.210938 21.25 72.402344 17.800781 65.226562 16.6875 C 63.304688 16.378906 58.324219 16.25 56.53125 16.445312 Z M 56.53125 16.445312 "/>
<path style=" stroke:none;fill-rule:nonzero;fill:rgb(0%,0%,0%);fill-opacity:1;" d="M 93.789062 91.285156 C 90.855469 93.429688 82.226562 99.460938 79.675781 101.167969 C 76.324219 103.410156 72.695312 104.941406 69.371094 105.503906 C 67.726562 105.78125 65.355469 105.828125 64.195312 105.601562 C 63.789062 105.539062 63.453125 105.488281 63.417969 105.503906 C 63.386719 105.554688 85.886719 156.4375 86.339844 157.308594 C 86.675781 157.96875 87.195312 158.128906 87.597656 157.726562 C 87.757812 157.566406 89.53125 153.003906 91.53125 147.601562 C 93.53125 142.183594 95.355469 137.394531 95.566406 136.960938 C 96.015625 136.007812 96.695312 135.542969 97.644531 135.523438 C 98.144531 135.507812 100.742188 136.492188 108.675781 139.683594 C 117.824219 143.359375 119.097656 143.828125 119.453125 143.683594 C 119.726562 143.554688 119.839844 143.359375 119.839844 143.070312 C 119.839844 142.699219 96.597656 89.898438 96.304688 89.625 C 96.257812 89.578125 95.128906 90.316406 93.789062 91.285156 Z M 93.789062 91.285156 "/>
<path style=" stroke:none;fill-rule:nonzero;fill:rgb(0%,0%,0%);fill-opacity:1;" d="M 11.933594 116.035156 C 5.515625 130.558594 0.226562 142.636719 0.195312 142.878906 C 0.113281 143.410156 0.386719 143.8125 0.824219 143.8125 C 1 143.8125 5.839844 141.925781 11.582031 139.621094 C 21.742188 135.523438 22.066406 135.414062 22.726562 135.574219 C 23.417969 135.71875 24.082031 136.203125 24.386719 136.78125 C 24.46875 136.945312 26.242188 141.652344 28.324219 147.261719 C 30.402344 152.855469 32.242188 157.566406 32.402344 157.726562 C 32.824219 158.160156 33.324219 157.953125 33.710938 157.210938 C 34.242188 156.144531 57.113281 104.441406 57.066406 104.394531 C 57.03125 104.375 56.082031 104.425781 54.917969 104.503906 C 50.953125 104.765625 46.226562 104.375 42.582031 103.488281 C 40.03125 102.859375 38.03125 102.121094 35.566406 100.894531 C 30.484375 98.363281 26.953125 95.1875 24.371094 90.800781 C 23.984375 90.171875 23.660156 89.640625 23.644531 89.640625 C 23.644531 89.640625 18.371094 101.523438 11.933594 116.035156 Z M 11.933594 116.035156 "/>
</g>
</svg>
