<svg width="400" height="400" viewBox="0 0 400 400" fill="none" xmlns="http://www.w3.org/2000/svg">
<rect width="400" height="400" fill="#A7A7A7" fill-opacity="0.8"/>
<rect x="50" y="50" width="300" height="300" fill="white"/>
<rect x="117" y="160" width="223" height="20" rx="9" fill="#D9D9D9"/>
<rect x="117" y="190" width="223" height="20" rx="9" fill="#D9D9D9"/>
<rect x="117" y="265" width="223" height="20" rx="9" fill="#D9D9D9"/>
<rect x="117" y="295" width="223" height="20" rx="9" fill="#D9D9D9"/>
<rect x="61" y="119" width="182" height="20" rx="9" fill="#D9D9D9"/>
<rect x="60" y="228" width="183" height="20" rx="9" fill="#D9D9D9"/>
<rect x="60" y="69" width="280" height="20" rx="9" fill="#A7A7A7"/>
<rect x="86" y="195" width="11" height="10" fill="#D9D9D9"/>
<rect x="86" y="163" width="11" height="10" fill="#1C73F5"/>
<path d="M90.2273 169.537L88.5568 167.343L88 168.075L90.2273 171L95 164.731L94.4432 164L90.2273 169.537Z" fill="white"/>
<rect x="86" y="270" width="11" height="10" fill="#1C73F5"/>
<path d="M90.2273 276.537L88.5568 274.343L88 275.075L90.2273 278L95 271.731L94.4432 271L90.2273 276.537Z" fill="white"/>
<rect x="86" y="300" width="11" height="10" fill="#1C73F5"/>
<path d="M90.2273 306.537L88.5568 304.343L88 305.075L90.2273 308L95 301.731L94.4432 301L90.2273 306.537Z" fill="white"/>
<rect x="294" y="327" width="46" height="15" rx="5" fill="#1C73F5"/>
</svg>
