<svg width="38" height="38" viewBox="0 0 38 38" fill="none" xmlns="http://www.w3.org/2000/svg">
<path fill-rule="evenodd" clip-rule="evenodd" d="M19 35C27.8366 35 35 27.8366 35 19C35 10.1634 27.8366 3 19 3C10.1634 3 3 10.1634 3 19C3 27.8366 10.1634 35 19 35Z" fill="#007EBB"/>
<path fill-rule="evenodd" clip-rule="evenodd" d="M29.2235 28.3334H25.2055V21.4897C25.2055 19.6134 24.4925 18.5648 23.0074 18.5648C21.3918 18.5648 20.5477 19.656 20.5477 21.4897V28.3334H16.6754V15.2964H20.5477V17.0524C20.5477 17.0524 21.7119 14.8981 24.4785 14.8981C27.2438 14.8981 29.2235 16.5867 29.2235 20.0791V28.3334ZM12.0558 13.5893C10.7368 13.5893 9.66797 12.5121 9.66797 11.1835C9.66797 9.85503 10.7368 8.77783 12.0558 8.77783C13.3747 8.77783 14.4429 9.85503 14.4429 11.1835C14.4429 12.5121 13.3747 13.5893 12.0558 13.5893ZM10.0563 28.3334H14.0941V15.2964H10.0563V28.3334Z" fill="white"/>
</svg>
