<svg width="224" height="196" viewBox="0 0 224 196" fill="none" xmlns="http://www.w3.org/2000/svg">
<path d="M0 64C0 59.5817 3.58172 56 8 56H152C156.418 56 160 59.5817 160 64V170C160 174.418 156.418 178 152 178H8C3.58172 178 0 174.418 0 170V64Z" fill="#F8F8F8"/>
<g opacity="0.5">
<rect x="12" y="68" width="12" height="12" rx="6" fill="#1890FF" fill-opacity="0.1"/>
<rect x="12" y="127" width="12" height="12" rx="6" fill="#1890FF" fill-opacity="0.1"/>
<rect x="28" y="70" width="20" height="4" rx="2" fill="black" fill-opacity="0.05"/>
<rect x="28" y="129" width="20" height="4" rx="2" fill="black" fill-opacity="0.05"/>
<path d="M28 77C28 76.4477 28.4477 76 29 76H39C39.5523 76 40 76.4477 40 77C40 77.5523 39.5523 78 39 78H29C28.4477 78 28 77.5523 28 77Z" fill="black" fill-opacity="0.05"/>
<path d="M28 136C28 135.448 28.4477 135 29 135H39C39.5523 135 40 135.448 40 136C40 136.552 39.5523 137 39 137H29C28.4477 137 28 136.552 28 136Z" fill="black" fill-opacity="0.05"/>
<path d="M12 88C12 85.7909 13.7909 84 16 84H88C90.2091 84 92 85.7909 92 88V119C92 121.209 90.2091 123 88 123H16C13.7909 123 12 121.209 12 119V88Z" fill="#1890FF" fill-opacity="0.1"/>
<path d="M12 147C12 144.791 13.7909 143 16 143H88C90.2091 143 92 144.791 92 147V178H12V147Z" fill="#1890FF" fill-opacity="0.1"/>
<path fill-rule="evenodd" clip-rule="evenodd" d="M42.308 107.24C42.6967 107.707 43.4078 107.722 43.8162 107.273L54.7502 95.2453C55.147 94.8088 55.8334 94.8088 56.2301 95.2453L73.5774 114.327C74.1614 114.97 73.7056 116 72.8375 116H49.6078C49.6078 116 49.6078 116 49.6078 116C49.6078 116 49.6078 116 49.6078 116H32.135C31.2872 116 30.8241 115.011 31.3668 114.36L39.0357 105.157C39.4355 104.677 40.1723 104.677 40.5721 105.157L42.308 107.24Z" fill="#E02F6B" fill-opacity="0.2"/>
<circle cx="33.9216" cy="94.9216" r="3.92157" fill="#1890FF" fill-opacity="0.1"/>
<path fill-rule="evenodd" clip-rule="evenodd" d="M42.308 169.24C42.6967 169.707 43.4078 169.722 43.8162 169.273L54.7502 157.245C55.147 156.809 55.8334 156.809 56.2301 157.245L73.5774 176.327C74.1614 176.97 73.7056 178 72.8375 178H49.6078C49.6078 178 49.6078 178 49.6078 178C49.6078 178 49.6078 178 49.6078 178H32.135C31.2872 178 30.8241 177.011 31.3668 176.36L39.0357 167.157C39.4355 166.677 40.1723 166.677 40.5721 167.157L42.308 169.24Z" fill="#E02F6B" fill-opacity="0.2"/>
<circle cx="33.9216" cy="156.922" r="3.92157" fill="#1890FF" fill-opacity="0.1"/>
</g>
<path d="M64 64C64 59.5817 67.5817 56 72 56H216C220.418 56 224 59.5817 224 64V170C224 174.418 220.418 178 216 178H72C67.5817 178 64 174.418 64 170V64Z" fill="#F8F8F8"/>
<path d="M91 74C91 71.7909 92.7909 70 95 70H147C149.209 70 151 71.7909 151 74V126C151 128.209 149.209 130 147 130H95C92.7909 130 91 128.209 91 126V74Z" fill="#E02F6B" fill-opacity="0.2"/>
<path d="M91 136C91 133.791 92.7909 132 95 132H147C149.209 132 151 133.791 151 136V178H91V136Z" fill="#E02F6B" fill-opacity="0.2"/>
<path fill-rule="evenodd" clip-rule="evenodd" d="M111.308 104.24C111.697 104.707 112.408 104.722 112.816 104.273L123.75 92.2453C124.147 91.8088 124.833 91.8088 125.23 92.2453L142.577 111.327C143.161 111.97 142.706 113 141.837 113H118.608C118.608 113 118.608 113 118.608 113C118.608 113 118.608 113 118.608 113H101.135C100.287 113 99.824 112.011 100.367 111.36L108.036 102.157C108.435 101.677 109.172 101.677 109.572 102.157L111.308 104.24Z" fill="#E02F6B" fill-opacity="0.2"/>
<circle cx="102.922" cy="91.9216" r="3.92157" fill="#E02F6B" fill-opacity="0.2"/>
<path fill-rule="evenodd" clip-rule="evenodd" d="M111.308 166.24C111.697 166.707 112.408 166.722 112.816 166.273L123.75 154.245C124.147 153.809 124.833 153.809 125.23 154.245L142.577 173.327C143.161 173.97 142.706 175 141.837 175H118.608C118.608 175 118.608 175 118.608 175C118.608 175 118.608 175 118.608 175H101.135C100.287 175 99.824 174.011 100.367 173.36L108.036 164.157C108.435 163.677 109.172 163.677 109.572 164.157L111.308 166.24Z" fill="#E02F6B" fill-opacity="0.2"/>
<circle cx="102.922" cy="153.922" r="3.92157" fill="#E02F6B" fill-opacity="0.2"/>
<g opacity="0.6">
<path d="M153 74C153 71.7909 154.791 70 157 70H209C211.209 70 213 71.7909 213 74V126C213 128.209 211.209 130 209 130H157C154.791 130 153 128.209 153 126V74Z" fill="#1890FF" fill-opacity="0.1"/>
<path d="M142 136C142 133.791 143.791 132 146 132H198C200.209 132 202 133.791 202 136V178H142V136Z" fill="#1890FF" fill-opacity="0.1"/>
<path fill-rule="evenodd" clip-rule="evenodd" d="M172.308 104.24C172.697 104.707 173.408 104.722 173.816 104.273L184.75 92.2453C185.147 91.8088 185.833 91.8088 186.23 92.2453L203.577 111.327C204.161 111.97 203.706 113 202.837 113H179.608C179.608 113 179.608 113 179.608 113C179.608 113 179.608 113 179.608 113H162.135C161.287 113 160.824 112.011 161.367 111.36L169.036 102.157C169.435 101.677 170.172 101.677 170.572 102.157L172.308 104.24Z" fill="#1890FF" fill-opacity="0.1"/>
<circle cx="163.922" cy="91.9216" r="3.92157" fill="#1890FF" fill-opacity="0.1"/>
</g>
<g filter="url(#filter0_dd)">
<path d="M32 52C32 47.5817 35.5817 44 40 44H184C188.418 44 192 47.5817 192 52V182C192 186.418 188.418 190 184 190H40C35.5817 190 32 186.418 32 182V52Z" fill="white"/>
</g>
<rect x="44" y="56" width="20" height="20" rx="10" fill="#1890FF" fill-opacity="0.1"/>
<rect x="69" y="118" width="12" height="12" rx="6" fill="#1890FF" fill-opacity="0.1"/>
<rect x="44" y="79" width="20" height="4" rx="2" fill="black" fill-opacity="0.05"/>
<rect x="85" y="120" width="20" height="4" rx="2" fill="black" fill-opacity="0.05"/>
<path d="M44 86C44 85.4477 44.4477 85 45 85H55C55.5523 85 56 85.4477 56 86C56 86.5523 55.5523 87 55 87H45C44.4477 87 44 86.5523 44 86Z" fill="black" fill-opacity="0.05"/>
<path d="M85 127C85 126.448 85.4477 126 86 126H96C96.5523 126 97 126.448 97 127C97 127.552 96.5523 128 96 128H86C85.4477 128 85 127.552 85 127Z" fill="black" fill-opacity="0.05"/>
<path d="M69 60C69 57.7909 70.7909 56 73 56H176C178.209 56 180 57.7909 180 60V102C180 104.209 178.209 106 176 106H73C70.7909 106 69 104.209 69 102V60Z" fill="#1890FF" fill-opacity="0.1"/>
<path fill-rule="evenodd" clip-rule="evenodd" d="M115.308 85.2402C115.697 85.7066 116.408 85.7219 116.816 85.2727L127.75 73.2453C128.147 72.8088 128.833 72.8088 129.23 73.2453L146.577 92.3273C147.161 92.9696 146.706 93.9999 145.837 93.9999H122.608C122.608 93.9999 122.608 94 122.608 94C122.608 94 122.608 94 122.608 94H105.135C104.287 94 103.824 93.0111 104.367 92.3598L112.036 83.1571C112.435 82.6774 113.172 82.6774 113.572 83.1571L115.308 85.2402Z" fill="#1890FF" fill-opacity="0.2"/>
<circle cx="106.922" cy="72.9216" r="3.92157" fill="#1890FF" fill-opacity="0.2"/>
<path d="M69 138C69 135.791 70.7909 134 73 134H145C147.209 134 149 135.791 149 138V174C149 176.209 147.209 178 145 178H73C70.7909 178 69 176.209 69 174V138Z" fill="#1890FF" fill-opacity="0.1"/>
<path fill-rule="evenodd" clip-rule="evenodd" d="M99.308 160.24C99.6967 160.707 100.408 160.722 100.816 160.273L111.75 148.245C112.147 147.809 112.833 147.809 113.23 148.245L130.577 167.327C131.161 167.97 130.706 169 129.837 169H106.608C106.608 169 106.608 169 106.608 169C106.608 169 106.608 169 106.608 169H89.135C88.2872 169 87.824 168.011 88.3668 167.36L96.0357 158.157C96.4355 157.677 97.1723 157.677 97.5721 158.157L99.308 160.24Z" fill="#1890FF" fill-opacity="0.2"/>
<circle cx="90.9216" cy="147.922" r="3.92157" fill="#1890FF" fill-opacity="0.2"/>
<circle cx="24" cy="16" r="16" fill="white"/>
<path d="M32 16.0489C32 11.6036 28.4183 8 24 8C19.5817 8 16 11.6036 16 16.0489C16 20.0663 18.9255 23.3962 22.75 24V18.3755H20.7188V16.0489H22.75V14.2756C22.75 12.2584 23.9444 11.1441 25.7717 11.1441C26.6467 11.1441 27.5625 11.3013 27.5625 11.3013V13.2821H26.5538C25.56 13.2821 25.25 13.9026 25.25 14.5397V16.0489H27.4688L27.1141 18.3755H25.25V24C29.0745 23.3962 32 20.0663 32 16.0489Z" fill="#89BCFF"/>
<circle cx="68" cy="16" r="16" fill="white"/>
<path fill-rule="evenodd" clip-rule="evenodd" d="M62.8869 10C62.3972 10 62 10.3851 62 10.8596V21.1407C62 21.6152 62.3973 22 62.8869 22H73.1131C73.603 22 74 21.6152 74 21.1405V10.8596C74 10.3851 73.603 10 73.1131 10H62.8869ZM65.6467 14.64V20.0425H63.851V14.64H65.6467ZM65.7651 12.9693C65.7651 13.4877 65.3753 13.9026 64.7492 13.9026L64.7375 13.9025C64.1348 13.9025 63.7452 13.4877 63.7452 12.9692C63.7452 12.439 64.1466 12.0358 64.7611 12.0358C65.3753 12.0358 65.7534 12.439 65.7651 12.9693ZM68.4362 20.0425H66.6406C66.6406 20.0425 66.6642 15.147 66.6407 14.6402H68.4363V15.4049C68.675 15.0369 69.1022 14.5134 70.0547 14.5134C71.2361 14.5134 72.1218 15.2856 72.1218 16.9449V20.0425H70.3263V17.1526C70.3263 16.4263 70.0663 15.9309 69.4167 15.9309C68.9206 15.9309 68.6251 16.265 68.4954 16.5878C68.4479 16.7029 68.4362 16.8646 68.4362 17.0258V20.0425Z" fill="#9DC2E6"/>
<circle cx="156" cy="16" r="16" fill="white"/>
<path d="M160.573 12.2742C160.573 12.7263 160.206 13.0927 159.754 13.0927C159.302 13.0927 158.936 12.7263 158.936 12.2742C158.936 11.8221 159.302 11.4557 159.754 11.4557C160.206 11.4557 160.573 11.8221 160.573 12.2742Z" fill="#F3ACC4"/>
<path fill-rule="evenodd" clip-rule="evenodd" d="M152.528 16.1411C152.528 14.1371 154.165 12.5282 156.141 12.5282C158.117 12.5282 159.754 14.1653 159.754 16.1411C159.754 18.1169 158.145 19.754 156.141 19.754C154.137 19.754 152.528 18.1452 152.528 16.1411ZM153.827 16.1411C153.827 17.4113 154.871 18.4556 156.141 18.4556C157.411 18.4556 158.456 17.4113 158.456 16.1411C158.456 14.871 157.411 13.8266 156.141 13.8266C154.871 13.8266 153.827 14.871 153.827 16.1411Z" fill="#F3ACC4"/>
<path fill-rule="evenodd" clip-rule="evenodd" d="M161.871 10.1573C161.137 9.39516 160.093 9 158.907 9H153.093C150.637 9 149 10.6371 149 13.0927V18.879C149 20.0927 149.395 21.1371 150.185 21.8992C150.948 22.6331 151.964 23 153.121 23H158.879C160.093 23 161.109 22.6048 161.843 21.8992C162.605 21.1653 163 20.121 163 18.9073V13.0927C163 11.9073 162.605 10.8911 161.871 10.1573ZM161.702 18.9072C161.702 19.7822 161.448 20.4879 160.94 20.9677C160.431 21.4476 159.726 21.7016 158.879 21.7016H153.121C152.274 21.7016 151.569 21.4476 151.06 20.9677C150.552 20.4597 150.298 19.754 150.298 18.879V13.0927C150.298 12.246 150.552 11.5403 151.06 11.0322C151.54 10.5524 152.274 10.2984 153.121 10.2984H158.935C159.782 10.2984 160.488 10.5524 160.996 11.0605C161.476 11.5685 161.758 12.2742 161.758 13.0927V18.9072H161.702Z" fill="#F3ACC4"/>
<circle cx="200" cy="16" r="16" fill="white"/>
<path fill-rule="evenodd" clip-rule="evenodd" d="M200 24C204.418 24 208 20.4183 208 16C208 11.5817 204.418 8 200 8C195.582 8 192 11.5817 192 16C192 20.4183 195.582 24 200 24ZM200.082 21C203.014 21 205 18.9698 205 16.1169C205 15.7843 204.967 15.5383 204.92 15.2823H200.082V17.002H202.967C202.848 17.7379 202.094 19.1573 200.082 19.1573C198.348 19.1573 196.932 17.744 196.932 16C196.932 13.1895 200.297 11.8992 202.107 13.6169L203.49 12.3085C202.602 11.494 201.451 11 200.082 11C197.27 11 195 13.2339 195 16C195 18.7661 197.27 21 200.082 21Z" fill="#B5BCE3"/>
<circle cx="112" cy="16" r="16" fill="white"/>
<path d="M109.032 23C115.069 23 118.372 17.9981 118.372 13.6604C118.372 13.5184 118.372 13.3769 118.362 13.2361C119.005 12.7715 119.559 12.1961 120 11.5371C119.401 11.8025 118.765 11.9766 118.115 12.0535C118.8 11.6433 119.313 10.9981 119.558 10.2379C118.913 10.6203 118.208 10.8897 117.473 11.0347C116.978 10.5084 116.324 10.16 115.611 10.0432C114.898 9.92644 114.166 10.0479 113.529 10.3888C112.892 10.7296 112.385 11.2709 112.087 11.9289C111.789 12.5868 111.716 13.3247 111.879 14.0284C110.574 13.963 109.297 13.6239 108.132 13.033C106.966 12.4422 105.938 11.6129 105.114 10.5989C104.694 11.3215 104.565 12.1769 104.754 12.991C104.943 13.8051 105.435 14.5166 106.13 14.9807C105.608 14.9652 105.096 14.8243 104.64 14.5698C104.64 14.5833 104.64 14.5973 104.64 14.6114C104.64 15.3693 104.903 16.1037 105.383 16.6902C105.863 17.2767 106.531 17.6791 107.274 17.8291C106.79 17.9609 106.283 17.9802 105.791 17.8854C106.001 18.5377 106.41 19.108 106.959 19.5168C107.509 19.9255 108.173 20.1521 108.858 20.165C107.696 21.0785 106.26 21.5744 104.781 21.5729C104.52 21.5724 104.259 21.5566 104 21.5255C105.501 22.4888 107.248 22.9998 109.032 22.9974" fill="#BFE5FC"/>
<defs>
<filter id="filter0_dd" x="28" y="42" width="168" height="154" filterUnits="userSpaceOnUse" color-interpolation-filters="sRGB">
<feFlood flood-opacity="0" result="BackgroundImageFix"/>
<feColorMatrix in="SourceAlpha" type="matrix" values="0 0 0 0 0 0 0 0 0 0 0 0 0 0 0 0 0 0 127 0"/>
<feOffset/>
<feGaussianBlur stdDeviation="0.5"/>
<feColorMatrix type="matrix" values="0 0 0 0 0.195278 0 0 0 0 0.308333 0 0 0 0 0.226933 0 0 0 0.15 0"/>
<feBlend mode="normal" in2="BackgroundImageFix" result="effect1_dropShadow"/>
<feColorMatrix in="SourceAlpha" type="matrix" values="0 0 0 0 0 0 0 0 0 0 0 0 0 0 0 0 0 0 127 0"/>
<feOffset dy="2"/>
<feGaussianBlur stdDeviation="2"/>
<feColorMatrix type="matrix" values="0 0 0 0 0 0 0 0 0 0 0 0 0 0 0 0 0 0 0.08 0"/>
<feBlend mode="normal" in2="effect1_dropShadow" result="effect2_dropShadow"/>
<feBlend mode="normal" in="SourceGraphic" in2="effect2_dropShadow" result="shape"/>
</filter>
</defs>
</svg>
