<svg width="38" height="38" viewBox="0 0 38 38" fill="none" xmlns="http://www.w3.org/2000/svg">
<path d="M19 35C27.8366 35 35 27.8366 35 19C35 10.1634 27.8366 3 19 3C10.1634 3 3 10.1634 3 19C3 27.8366 10.1634 35 19 35Z" fill="#1B9DF0"/>
<path d="M16.0757 27.4402C23.1717 27.4402 27.0517 21.5602 27.0517 16.4642C27.0517 16.2962 27.0517 16.1282 27.0437 15.9682C27.7957 15.4242 28.4517 14.7442 28.9717 13.9682C28.2837 14.2722 27.5397 14.4802 26.7557 14.5762C27.5557 14.0962 28.1637 13.3442 28.4517 12.4402C27.7077 12.8802 26.8837 13.2002 26.0037 13.3762C25.2997 12.6242 24.2997 12.1602 23.1877 12.1602C21.0597 12.1602 19.3317 13.8882 19.3317 16.0162C19.3317 16.3202 19.3637 16.6162 19.4357 16.8962C16.2277 16.7362 13.3877 15.2002 11.4837 12.8642C11.1557 13.4322 10.9637 14.0962 10.9637 14.8002C10.9637 16.1362 11.6437 17.3202 12.6837 18.0082C12.0517 17.9922 11.4597 17.8162 10.9397 17.5282C10.9397 17.5442 10.9397 17.5602 10.9397 17.5762C10.9397 19.4482 12.2677 21.0002 14.0357 21.3602C13.7157 21.4482 13.3717 21.4962 13.0197 21.4962C12.7717 21.4962 12.5317 21.4722 12.2917 21.4242C12.7797 22.9602 14.2037 24.0722 15.8917 24.1042C14.5717 25.1362 12.9077 25.7522 11.0997 25.7522C10.7877 25.7522 10.4837 25.7362 10.1797 25.6962C11.8677 26.8002 13.8997 27.4402 16.0757 27.4402Z" fill="white"/>
</svg>
